PathFileType	4	(X/Y/Z)	D:\TRACE\spot_10-12-23\spot_arm_body_motion_3_5-platform.trc
DataRate	CameraRate	NumFrames	NumMarkers	Units	OrigDataRate	OrigDataStartFrame	OrigNumFrames
100.00	100.00	      48	5	mm	100.00	2626	      7000
Frame#	Time	Left_Front			Right_Front			Left_Aft			Right_Aft			Post			
		X1	Y1	Z1	X2	Y2	Z2	X3	Y3	Z3	X4	Y4	Z4	X5	Y5	Z5	

2626	26.250	-772.03052	48.98236	-630.04871	800.53308	52.87092	-623.24316	-688.61072	-24.59262	505.49731	728.61078	-25.24135	591.45123	10.87271	805.48346	-901.24280	
2627	26.260	-772.24597	49.37136	-629.94891	800.32513	53.39099	-623.21930	-688.78314	-24.77625	505.57062	728.54932	-25.47670	591.50525	10.93183	805.91998	-900.56897	
2628	26.270	-772.31079	49.60153	-629.88708	800.43323	53.76522	-622.94556	-688.90179	-24.94616	505.61377	728.56250	-25.82510	591.68127	10.86658	806.58856	-899.87787	
2629	26.280	-772.41742	49.86002	-629.72083	800.28070	54.05926	-622.88550	-689.05597	-25.25694	505.68289	728.45624	-26.21725	591.79602	10.97528	806.94110	-899.46429	
2630	26.290	-772.50934	50.18521	-629.52698	800.25110	54.40558	-622.79169	-689.20392	-25.50914	505.76813	728.30243	-26.53893	591.89673	10.65901	807.40509	-898.73566	
2631	26.300	-772.53180	50.48031	-629.33014	800.21484	54.95236	-622.65143	-689.36865	-25.81219	505.87488	728.29321	-26.69639	591.94629	10.27917	807.92206	-898.05542	
2632	26.310	-772.66266	50.75251	-629.19830	800.04907	55.33035	-622.56012	-689.56763	-26.05944	505.92737	728.10474	-26.99691	592.03943	10.23063	808.50549	-897.55676	
2633	26.320	-772.78540	51.04004	-629.12531	799.92242	55.60234	-622.49384	-689.62189	-26.35776	506.03937	727.88599	-27.37148	592.14722	10.12352	809.18671	-896.79767	
2634	26.330	-773.01648	51.59784	-629.16168	799.63214	55.99527	-622.40100	-689.72748	-26.64787	506.11563	727.78876	-27.75238	592.20740	10.14869	809.50031	-895.97687	
2635	26.340	-773.15710	52.03204	-629.10156	799.46497	56.20565	-622.30542	-689.73199	-26.90631	506.21472	727.68939	-28.09108	592.28943	10.15338	809.88385	-895.40662	
2636	26.350	-773.33557	52.49977	-628.94684	799.26422	56.53473	-622.21478	-689.71649	-26.99054	506.29532	727.55756	-28.30699	592.38696	9.87164	810.32361	-894.91779	
2637	26.360	-773.45441	52.80609	-628.83313	799.20996	56.87847	-622.14301	-689.90613	-27.21741	506.32727	727.50763	-28.49652	592.42444	9.73519	810.85382	-894.50958	
2638	26.370	-773.48895	53.01890	-628.81238	799.32233	57.26422	-621.96539	-690.09760	-27.45376	506.40439	727.37329	-28.71020	592.45612	9.57181	811.31781	-894.11884	
2639	26.380	-773.50507	53.29240	-628.71704	799.23828	57.68747	-621.90302	-690.22290	-27.71015	506.42352	727.33936	-28.90286	592.51550	9.43012	811.76855	-893.85345	
2640	26.390	-773.64185	53.67362	-628.65308	799.03870	58.08288	-621.84839	-690.33942	-28.02802	506.41684	727.12067	-29.24634	592.63354	9.40070	812.29053	-893.53778	
2641	26.400	-773.59729	53.85389	-628.56268	798.90112	58.37111	-621.73749	-690.46130	-28.30216	506.40555	727.09113	-29.53314	592.79529	9.11191	812.94720	-893.41663	
2642	26.410	-773.73663	54.25732	-628.40448	798.63599	58.72137	-621.63788	-690.56256	-28.53438	506.44019	727.04602	-29.68857	592.97595	8.54196	813.75928	-892.69965	
2643	26.420	-773.87103	54.69339	-628.26709	798.61652	59.04179	-621.55621	-690.58386	-28.69966	506.50928	727.01953	-29.81023	593.02887	8.91153	813.72803	-892.71674	
2644	26.430	-774.08081	55.19719	-628.23779	798.54242	59.28318	-621.38397	-690.70227	-28.99742	506.59027	726.84521	-30.09535	593.11774	8.67706	814.27972	-892.13342	
2645	26.440	-774.24969	55.40797	-628.13794	798.37512	59.56504	-621.24164	-690.86627	-29.30569	506.67868	726.72076	-30.35439	593.26099	8.73065	814.77374	-891.64850	
2646	26.450	-774.37042	55.74542	-628.07471	798.25366	59.85742	-621.08527	-691.03949	-29.59431	506.69843	726.47040	-30.77136	593.37891	8.70691	815.37524	-891.03162	
2647	26.460	-774.54932	56.20581	-627.90784	798.22107	60.10995	-620.96771	-691.15454	-29.79107	506.78076	726.60535	-30.87069	593.44775	8.54711	815.92145	-890.42700	
2648	26.470	-774.77954	56.76895	-627.72900	798.09247	60.67348	-620.89008	-691.19983	-29.97270	506.87646	726.27747	-31.76828	592.83881	8.39115	816.67200	-889.72858	
2649	26.480	-774.92291	57.08464	-627.57794	798.24518	61.16005	-620.75262	-691.20123	-30.20842	506.94260	726.12299	-32.09917	592.88177	8.16156	816.95325	-889.16492	
2650	26.490	-774.81683	57.23296	-627.47540	798.07764	61.66407	-620.63867	-691.34625	-30.49768	507.03699	726.02686	-32.40610	592.99524	8.00747	817.53955	-888.38025	
2651	26.500	-774.88300	57.59718	-627.35107	797.98553	62.12360	-620.48236	-691.38586	-30.93929	507.37396	725.90643	-32.73746	593.06860	8.00617	818.16467	-887.63770	
2652	26.510	-774.93066	57.97995	-627.24237	797.80042	62.41487	-620.44232	-691.65472	-31.16967	507.17056	725.75873	-33.09009	593.13196	7.96960	818.77448	-886.86316	
2653	26.520	-775.05347	58.47051	-627.15851	797.68140	62.69192	-620.31616	-691.73645	-31.50339	507.40988	725.59570	-33.36395	593.19550	8.23311	818.77863	-886.18658	
2654	26.530	-775.13702	58.87579	-627.02472	797.45624	63.03677	-620.28088	-691.76538	-31.81141	507.49103	725.46411	-33.61812	593.21777	8.07665	819.26862	-885.67535	
2655	26.540	-775.29828	59.27755	-626.90875	797.30981	63.41323	-620.08618	-691.88409	-31.89866	507.56015	725.46863	-33.83311	593.30896	6.64590	820.97290	-884.73712	
2656	26.550	-775.33441	59.34877	-626.70966	797.15527	63.82283	-619.91504	-692.00507	-32.16164	507.66266	725.35443	-34.13281	593.40503	7.33708	820.90259	-884.78107	
2657	26.560	-775.58801	60.00722	-626.56647	797.18054	64.36816	-619.74896	-692.19788	-32.53106	507.73666	725.22296	-34.54361	593.71332	7.16879	821.47766	-884.32367	
2658	26.570	-775.82715	60.53741	-626.40161	797.17163	64.78340	-619.58569	-692.27881	-32.91059	507.86978	725.07739	-35.04648	593.99744	6.97273	821.87164	-883.83575	
2659	26.580	-775.93927	60.92406	-626.36688	796.96112	65.18501	-619.52753	-692.49603	-33.18937	507.85529	724.76044	-35.09245	594.41357	6.99629	822.40869	-883.38550	
2660	26.590	-775.97510	61.17260	-626.23743	796.79077	65.61102	-619.32520	-692.61694	-33.49678	507.99716	724.77429	-35.94656	593.78253	7.06462	823.01697	-882.72778	
2661	26.600	-776.17725	61.54850	-625.96423	796.63318	66.05041	-619.16669	-692.70319	-33.76428	508.03589	724.58270	-36.29597	593.74017	7.11843	823.80646	-882.05627	
2662	26.610	-776.32123	62.13021	-625.76306	796.50250	66.43006	-619.01672	-692.80127	-33.96922	508.08698	724.41412	-36.53378	593.92712	6.73978	824.39978	-881.24548	
2663	26.620	-776.36871	62.63206	-625.59113	796.35693	66.73483	-618.90314	-692.90460	-34.43911	508.13699	724.29333	-36.84175	594.04456	6.75714	824.74139	-880.68060	
2664	26.630	-776.54413	62.99232	-625.48969	796.13019	67.11608	-618.67151	-693.00897	-34.82438	508.15317	724.13031	-37.31996	594.30353	6.53518	825.35846	-879.91205	
2665	26.640	-776.57520	63.28493	-625.39923	796.05829	67.59559	-618.51166	-693.23993	-35.16744	508.20602	724.08246	-37.59623	594.44794	6.65018	825.99213	-879.14331	
2666	26.650	-776.72565	63.82066	-625.18878	796.07001	68.08229	-618.37805	-693.39612	-35.47092	508.30356	723.95551	-38.12453	594.42041	6.51179	826.64874	-878.32501	
2667	26.660	-776.90985	64.37764	-624.98712	795.71893	68.52041	-618.34735	-693.45959	-35.75367	508.43835	723.86664	-38.61840	594.38696	6.34997	827.24976	-877.53619	
2668	26.670	-777.11481	64.94543	-624.97473	795.41223	69.07945	-618.26917	-693.56610	-36.12959	508.49701	723.76630	-39.00291	594.37982	5.90955	828.17804	-876.48468	
2669	26.680	-777.16968	65.20663	-624.81116	795.40778	69.48618	-617.99133	-693.70306	-36.42354	508.56183	723.63025	-39.27814	594.46484	5.56275	828.54785	-876.14429	
2670	26.690	-777.33716	65.85605	-624.68231	795.56128	70.20393	-617.75385	-693.93604	-36.70954	508.61462	723.50677	-39.76917	594.59192	5.27936	829.52136	-875.58588	
2671	26.700	-777.45020	66.41648	-624.53192	795.40063	70.55432	-617.52722	-694.08911	-37.08039	508.71106	723.38916	-39.99139	594.77594	5.41015	830.21576	-874.88513	
2672	26.710	-777.57855	66.83894	-624.34137	795.14063	71.05887	-617.40570	-694.14655	-37.40673	508.88412	723.27997	-40.49664	594.96259	5.71468	830.34460	-874.10547	
2673	26.720	-777.55878	67.02202	-624.17004	795.03564	71.58678	-617.30615	-694.37061	-37.77451	508.96930	723.06958	-40.85321	594.91229	5.37064	831.17767	-873.34778	
